<svg width="24" height="24" fill="none" xmlns="http://www.w3.org/2000/svg"><g clip-path="url(#a)"><path d="M11.625.375C5.205.375 0 5.58 0 12s5.205 11.625 11.625 11.625S23.25 18.421 23.25 12C23.25 5.58 18.046.375 11.625.375Zm-.532 11.26a.75.75 0 0 1-.643.365h-.014a.75.75 0 0 0-.53.22l-.266.265a.375.375 0 0 0 0 .53l.266.266c.14.14.22.331.22.53v.439a.75.75 0 0 1-.75.75h-.287a.75.75 0 0 1-.67-.415l-1.061-2.12a.375.375 0 0 0-.6-.098l-.913.913a.75.75 0 0 1-.53.22H2.382A9.351 9.351 0 0 1 2.25 12c0-5.17 4.206-9.375 9.375-9.375 1.008 0 1.978.165 2.889.46l-2.351 1.806a.375.375 0 0 0 .04.648l.508.253a.75.75 0 0 1 .414.671v3.662a.375.375 0 0 1-.375.375h-.143a.374.374 0 0 1-.336-.207.208.208 0 0 0-.363-.014l-.815 1.357Zm8.032 5.166a.75.75 0 0 1-.22.53l-.448.45a.75.75 0 0 1-.53.219h-.711a.75.75 0 0 1-.53-.22l-.61-.61a1.254 1.254 0 0 0-1.192-.33l-.997.25a.743.743 0 0 1-.182.022h-.484a.75.75 0 0 1-.53-.22l-.559-.558a.376.376 0 0 1-.11-.265v-.478c0-.154.094-.291.236-.349l1.844-.738c.093-.037.181-.085.262-.142l1.112-.792a.374.374 0 0 1 .217-.07h.567c.151 0 .288.091.346.232l.251.602a.188.188 0 0 0 .173.115h.178a.187.187 0 0 0 .18-.135l.197-.678a.187.187 0 0 1 .18-.135h.284c.104 0 .188.084.188.187v.606c0 .1.04.195.11.266l.558.558c.14.14.22.332.22.53v1.153Z" fill="#000"/></g><defs><clipPath id="a"><path fill="#fff" d="M0 0h23.25v24H0z"/></clipPath></defs></svg>