<svg width="25" height="24" fill="none" xmlns="http://www.w3.org/2000/svg"><path fill-rule="evenodd" clip-rule="evenodd" d="M1.25 2.838A1.838 1.838 0 0 1 3.088 1H21.41a1.836 1.836 0 0 1 1.84 1.838V21.16A1.838 1.838 0 0 1 21.411 23H3.088a1.839 1.839 0 0 1-1.838-1.839V2.838Zm8.708 6.55h2.979v1.496c.43-.86 1.53-1.634 3.183-1.634 3.169 0 3.92 1.713 3.92 4.856v5.822h-3.207v-5.106c0-1.79-.43-2.8-1.522-2.8-1.515 0-2.145 1.089-2.145 2.8v5.106H9.958V9.388Zm-5.5 10.403h3.208V9.25H4.458V19.791ZM8.125 5.812A2.063 2.063 0 1 1 4 5.902a2.063 2.063 0 0 1 4.125-.09Z" fill="#000"/></svg>