<svg width="25" height="24" fill="none" xmlns="http://www.w3.org/2000/svg"><path d="M21.006 5.395 18.51 2.902a1.895 1.895 0 0 0-2.688 0l-2.686 2.686a1.896 1.896 0 0 0 0 2.688L15.1 10.24a9.229 9.229 0 0 1-1.887 2.72 9.265 9.265 0 0 1-2.72 1.895L8.527 12.89a1.896 1.896 0 0 0-2.688 0l-2.688 2.683a1.896 1.896 0 0 0-.558 1.345c0 .51.199.987.558 1.346l2.491 2.491a3.08 3.08 0 0 0 2.67.858c3.159-.52 6.292-2.2 8.821-4.727 2.527-2.524 4.205-5.656 4.732-8.825a3.085 3.085 0 0 0-.86-2.667Z" fill="#000"/></svg>