<!-- Generated by IcoMoon.io -->
<svg version="1.1" xmlns="http://www.w3.org/2000/svg" width="32" height="32" viewBox="0 0 32 32">
<title>discord</title>
<path d="M27.089 5.989c-2.040-0.92-4.227-1.6-6.513-1.987-0.006-0.001-0.012-0.002-0.019-0.002-0.037 0-0.069 0.020-0.086 0.049l-0 0c-0.28 0.492-0.592 1.133-0.811 1.64-1.099-0.173-2.367-0.272-3.658-0.272s-2.559 0.099-3.796 0.289l0.138-0.018c-0.287-0.66-0.562-1.198-0.865-1.719l0.042 0.079c-0.018-0.031-0.051-0.052-0.089-0.052-0.006 0-0.011 0-0.017 0.001l0.001-0c-2.285 0.387-4.472 1.067-6.513 1.988-0.018 0.008-0.032 0.020-0.042 0.036l-0 0c-4.149 6.1-5.287 12.049-4.728 17.924 0.003 0.030 0.019 0.056 0.041 0.073l0 0c2.285 1.681 4.941 3.036 7.801 3.923l0.189 0.051c0.009 0.003 0.020 0.005 0.031 0.005 0.033 0 0.062-0.015 0.081-0.039l0-0c0.573-0.758 1.116-1.615 1.586-2.516l0.048-0.102c0.007-0.013 0.011-0.029 0.011-0.046 0-0.043-0.027-0.079-0.065-0.093l-0.001-0c-0.975-0.37-1.797-0.763-2.581-1.216l0.085 0.045c-0.028-0.017-0.048-0.046-0.051-0.080l-0-0c-0-0.002-0-0.004-0-0.006 0-0.033 0.016-0.062 0.040-0.080l0-0c0.168-0.124 0.336-0.253 0.496-0.383 0.017-0.014 0.039-0.022 0.063-0.022 0.015 0 0.029 0.003 0.042 0.009l-0.001-0c5.236 2.352 10.907 2.352 16.081 0 0.013-0.006 0.027-0.010 0.043-0.010 0.024 0 0.045 0.008 0.062 0.022l-0-0c0.16 0.131 0.327 0.26 0.496 0.384 0.025 0.018 0.041 0.048 0.041 0.081 0 0.019-0.006 0.037-0.015 0.053l0-0c-0.009 0.014-0.020 0.025-0.034 0.033l-0 0c-0.797 0.459-1.627 0.847-2.497 1.169-0.039 0.014-0.066 0.051-0.066 0.094 0 0.017 0.004 0.033 0.011 0.047l-0-0.001c0.48 0.916 1.029 1.788 1.633 2.616 0.019 0.025 0.049 0.042 0.083 0.042 0.011 0 0.021-0.002 0.030-0.005l-0.001 0c3.055-0.935 5.714-2.29 8.077-4.026l-0.074 0.052c0.023-0.016 0.039-0.042 0.043-0.072l0-0c0.667-6.792-1.117-12.693-4.732-17.923-0.009-0.017-0.023-0.030-0.041-0.037l-0.001-0zM10.693 20.371c-1.576 0-2.876-1.425-2.876-3.173 0-1.749 1.275-3.173 2.876-3.173 1.613 0 2.901 1.436 2.876 3.173 0 1.749-1.275 3.173-2.876 3.173zM21.327 20.371c-1.577 0-2.876-1.425-2.876-3.173 0-1.749 1.273-3.173 2.876-3.173 1.613 0 2.901 1.436 2.876 3.173 0 1.749-1.261 3.173-2.876 3.173z"></path>
</svg>
