<!-- Generated by IcoMoon.io -->
<svg version="1.1" xmlns="http://www.w3.org/2000/svg" width="32" height="32" viewBox="0 0 32 32">
<title>email</title>
<path d="M28.737 5.333c-0.12-0.013-0.243-0.013-0.364 0h-24.889c-0.16 0.003-0.317 0.027-0.471 0.071l12.844 12.792 12.88-12.863z"></path>
<path d="M30.053 6.569l-12.943 12.888c-0.321 0.32-0.764 0.517-1.253 0.517s-0.932-0.198-1.253-0.517l0 0-12.827-12.791c-0.040 0.145-0.060 0.293-0.061 0.444v17.779c0 0.982 0.796 1.777 1.777 1.777v0h24.889c0.982 0 1.777-0.796 1.777-1.777v0-17.779c-0.008-0.196-0.046-0.381-0.111-0.554l0.004 0.012zM4.711 24.889h-1.235v-1.272l6.461-6.408 1.253 1.253-6.48 6.427zM28.364 24.889h-1.244l-6.48-6.427 1.253-1.253 6.463 6.408 0.008 1.272z"></path>
</svg>
