<!-- Generated by IcoMoon.io -->
<svg version="1.1" xmlns="http://www.w3.org/2000/svg" width="32" height="32" viewBox="0 0 32 32">
<title>globe</title>
<path d="M15.5 0.5c-8.56 0-15.5 6.94-15.5 15.5s6.94 15.5 15.5 15.5 15.5-6.939 15.5-15.5c0-8.56-6.939-15.5-15.5-15.5zM14.791 15.513c-0.178 0.293-0.495 0.486-0.857 0.487h-0.019c-0.276 0-0.526 0.112-0.707 0.293v0l-0.355 0.353c-0.090 0.090-0.146 0.215-0.146 0.353s0.056 0.263 0.146 0.353v0l0.355 0.355c0.187 0.187 0.293 0.441 0.293 0.707v0.585c0 0.552-0.448 1-1 1v0h-0.383c-0.389-0.001-0.726-0.223-0.891-0.548l-0.003-0.006-1.415-2.827c-0.084-0.165-0.253-0.276-0.447-0.276-0.138 0-0.262 0.056-0.353 0.146l-1.217 1.217c-0.181 0.181-0.431 0.293-0.707 0.293h-3.911c-0.107-0.598-0.171-1.29-0.176-1.995l-0-0.005c0-6.893 5.608-12.5 12.5-12.5 1.344 0 2.637 0.22 3.852 0.613l-3.135 2.408c-0.136 0.091-0.223 0.243-0.223 0.417 0 0.195 0.111 0.364 0.274 0.446l0.003 0.001 0.677 0.337c0.33 0.168 0.552 0.505 0.552 0.894 0 0 0 0 0 0.001v-0 4.883c0 0.276-0.224 0.5-0.5 0.5v0h-0.191c-0.001 0-0.001 0-0.002 0-0.194 0-0.363-0.111-0.445-0.273l-0.001-0.003c-0.047-0.091-0.14-0.152-0.247-0.152-0.1 0-0.187 0.053-0.236 0.132l-0.001 0.001-1.087 1.809zM25.5 22.401c-0 0.276-0.112 0.526-0.293 0.707v0l-0.597 0.6c-0.181 0.18-0.43 0.292-0.706 0.292-0 0-0 0-0 0h-0.948c-0.276-0-0.526-0.112-0.707-0.293v0l-0.813-0.813c-0.303-0.303-0.721-0.49-1.183-0.49-0.144 0-0.285 0.018-0.418 0.053l0.012-0.003-1.329 0.333c-0.072 0.019-0.154 0.029-0.239 0.029-0.001 0-0.002 0-0.004 0h-0.645c-0.276-0-0.526-0.112-0.707-0.293v0l-0.745-0.744c-0.090-0.090-0.146-0.215-0.147-0.353v-0.637c0-0.205 0.125-0.388 0.315-0.465l2.459-0.984c0.124-0.049 0.241-0.113 0.349-0.189l1.483-1.056c0.080-0.058 0.181-0.093 0.289-0.093h0.756c0.201 0 0.384 0.121 0.461 0.309l0.335 0.803c0.039 0.091 0.128 0.153 0.231 0.153h0.237c0 0 0 0 0 0 0.113 0 0.208-0.075 0.239-0.178l0-0.002 0.263-0.904c0.031-0.105 0.127-0.18 0.239-0.18 0 0 0 0 0.001 0h0.379c0.139 0 0.251 0.112 0.251 0.249v0.808c0 0.133 0.053 0.26 0.147 0.355l0.744 0.744c0.187 0.187 0.293 0.443 0.293 0.707v1.537z"></path>
</svg>
