<!-- Generated by IcoMoon.io -->
<svg version="1.1" xmlns="http://www.w3.org/2000/svg" width="33" height="32" viewBox="0 0 33 32">
<title>linkedin</title>
<path d="M1.667 3.784v24.431c0 0 0 0 0 0 0 1.354 1.097 2.451 2.451 2.452h24.431c0 0 0.001 0 0.001 0 1.353 0 2.451-1.097 2.451-2.451 0-0.001 0-0.002 0-0.003v-24.429c0-0.001 0-0.002 0-0.003 0-1.352-1.096-2.448-2.448-2.448-0.002 0-0.004 0-0.005 0h-24.429c-1.353 0-2.451 1.097-2.451 2.451zM13.277 12.517h3.972v1.995c0.573-1.147 2.040-2.179 4.244-2.179 4.225 0 5.227 2.284 5.227 6.475v7.763h-4.276v-6.808c0-2.387-0.573-3.733-2.029-3.733-2.020 0-2.86 1.452-2.86 3.733v6.808h-4.277v-14.053zM5.944 26.388v-14.055h4.277v14.055h-4.277zM10.833 7.749c0.001 0.020 0.001 0.044 0.001 0.068 0 1.519-1.232 2.751-2.751 2.751-1.501 0-2.721-1.202-2.75-2.696l-0-0.003c-0-0.015-0-0.034-0-0.052 0-1.519 1.232-2.751 2.751-2.751 1.495 0 2.712 1.193 2.75 2.679l0 0.004z"></path>
</svg>
