<!-- Generated by IcoMoon.io -->
<svg version="1.1" xmlns="http://www.w3.org/2000/svg" width="33" height="32" viewBox="0 0 33 32">
<title>phone</title>
<path d="M28.008 7.193l-3.328-3.324c-0.458-0.46-1.092-0.745-1.792-0.745s-1.334 0.285-1.792 0.745l-3.581 3.581c-0.46 0.458-0.745 1.092-0.745 1.792s0.285 1.334 0.745 1.792l2.619 2.619c-0.647 1.405-1.492 2.605-2.516 3.626l-0 0c-1.022 1.027-2.222 1.876-3.551 2.495l-0.076 0.032-2.621-2.62c-0.458-0.46-1.092-0.745-1.792-0.745s-1.334 0.285-1.792 0.745l-0 0-3.584 3.577c-0.46 0.458-0.744 1.091-0.744 1.791 0 0.001 0 0.002 0 0.002v-0c0 0.68 0.265 1.316 0.744 1.795l3.321 3.321c0.743 0.74 1.767 1.198 2.899 1.198 0.234 0 0.463-0.020 0.685-0.057l-0.024 0.003c4.212-0.693 8.389-2.933 11.761-6.303 3.369-3.365 5.607-7.541 6.309-11.767 0.033-0.196 0.052-0.423 0.052-0.653 0-1.133-0.458-2.159-1.199-2.903l0 0z"></path>
</svg>
